<svg xmlns="http://www.w3.org/2000/svg" width="1290" height="2796">
  <defs>
    <linearGradient id="sky" x1="0" y1="0" x2="0" y2="1">
      <stop offset="0%" stop-color="#0f0c29"/>
      <stop offset="40%" stop-color="#302b63"/>
      <stop offset="100%" stop-color="#24243e"/>
    </linearGradient>
    <radialGradient id="moon" cx="0.5" cy="0.5" r="0.5">
      <stop offset="0%" stop-color="#ffeaa7"/>
      <stop offset="100%" stop-color="#fdcb6e"/>
    </radialGradient>
  </defs>
  <rect width="1290" height="2796" fill="url(#sky)"/>
  <circle cx="950" cy="500" r="120" fill="url(#moon)"/>
  <circle cx="200" cy="300" r="3" fill="#fff" opacity="0.8"/>
  <circle cx="400" cy="150" r="2" fill="#fff" opacity="0.6"/>
  <circle cx="600" cy="250" r="3" fill="#fff" opacity="0.7"/>
  <circle cx="1100" cy="350" r="2" fill="#fff" opacity="0.5"/>
  <circle cx="300" cy="600" r="2" fill="#fff" opacity="0.6"/>
  <circle cx="800" cy="200" r="3" fill="#fff" opacity="0.7"/>
  <circle cx="1050" cy="150" r="2" fill="#fff" opacity="0.5"/>
  <circle cx="150" cy="450" r="2" fill="#fff" opacity="0.4"/>
  <circle cx="500" cy="700" r="2" fill="#fff" opacity="0.5"/>
  <circle cx="750" cy="400" r="3" fill="#fff" opacity="0.6"/>
  <path d="M0 2300 Q300 2000 645 2100 Q900 2150 1290 1950 L1290 2796 L0 2796Z" fill="#1a1a3e"/>
  <path d="M0 2500 Q400 2200 700 2350 Q1000 2450 1290 2200 L1290 2796 L0 2796Z" fill="#16213e"/>
</svg>
